# xmcd
#
# Track frame offsets:
#	150
#	10845
#	22990
#	35200
#	45095
#	56300
#	71127
#	81695
#	91280
#	103790
#	115152
#	126195
#	142940
#	154795
#	167362
#	177662
#	189530
#	198682
#	208115
#	219920
#	228415
#	239295
#	252532
#	266502
#	280235
#
# Disc length: 3990 seconds
#
# Revision: 0
# Processed by: cddbd v1.5.1PL2 Copyright (c) Steve Scherf et al.
# Submitted via: EasyCDDAExtractor 4.6.9.1
#
DISCID=680f9419
DTITLE=Various Artist - Tribute to Flatt and Scruggs
DYEAR=1997
DGENRE=Country
TTITLE0=I'm Going Back to Old Kentucky
TTITLE1=It's Mighty Dark to Travel
TTITLE2=Cabin in Caroline
TTITLE3=Foggy Mountain Breakdown
TTITLE4=Take Me in the Lifeboat
TTITLE5=Farewell Blues
TTITLE6=Salty Dog Blues
TTITLE7=Earl's Breakdown
TTITLE8=Tis Sweet to be Remembered
TTITLE9=If I Should Wander Back Tonight
TTITLE10=Cabin on the Hill
TTITLE11=Angel Band
TTITLE12=Polka on the Banjo
TTITLE13=Lonesome Road Blues
TTITLE14=Cripple Creek
TTITLE15=Reuben
TTITLE16=Jimmy Brown the Newsboy
TTITLE17=Sally Ann
TTITLE18=Ballad of Jed Clampett
TTITLE19=The Legend of the Johnson Boys
TTITLE20=Foorprints in the Snow
TTITLE21=Mama Don't Allow
TTITLE22=You are My Flower
TTITLE23=Petticoat Junction
TTITLE24=Gentle on My Mind
EXTD=
EXTT0=
EXTT1=
EXTT2=
EXTT3=
EXTT4=
EXTT5=
EXTT6=
EXTT7=
EXTT8=
EXTT9=
EXTT10=
EXTT11=
EXTT12=
EXTT13=
EXTT14=
EXTT15=
EXTT16=
EXTT17=
EXTT18=
EXTT19=
EXTT20=
EXTT21=
EXTT22=
EXTT23=
EXTT24=
PLAYORDER=
